<mxfile host="app.diagrams.net" modified="2021-05-22T17:00:59.331Z" agent="5.0 (Windows NT 10.0; Win64; x64) AppleWebKit/537.36 (KHTML, like Gecko) Chrome/90.0.4430.212 Safari/537.36" etag="1m2md696w-HT-6a1y4H-" version="14.5.10" type="github">
  <diagram id="VPsbSxtzRYap7X6kAkk0" name="Page-1">
    <mxGraphModel dx="1422" dy="794" grid="1" gridSize="10" guides="1" tooltips="1" connect="1" arrows="1" fold="1" page="1" pageScale="1" pageWidth="827" pageHeight="1169" math="0" shadow="0">
      <root>
        <mxCell id="0" />
        <mxCell id="1" parent="0" />
        <mxCell id="A-kss5NYeXnSZSWgqj85-4" style="edgeStyle=orthogonalEdgeStyle;rounded=0;orthogonalLoop=1;jettySize=auto;html=1;" parent="1" source="A-kss5NYeXnSZSWgqj85-1" target="A-kss5NYeXnSZSWgqj85-2" edge="1">
          <mxGeometry relative="1" as="geometry" />
        </mxCell>
        <mxCell id="A-kss5NYeXnSZSWgqj85-5" style="edgeStyle=orthogonalEdgeStyle;rounded=0;orthogonalLoop=1;jettySize=auto;html=1;exitX=1;exitY=0.5;exitDx=0;exitDy=0;entryX=0.583;entryY=0.017;entryDx=0;entryDy=0;entryPerimeter=0;" parent="1" source="A-kss5NYeXnSZSWgqj85-1" target="A-kss5NYeXnSZSWgqj85-3" edge="1">
          <mxGeometry relative="1" as="geometry">
            <mxPoint x="590" y="100" as="targetPoint" />
          </mxGeometry>
        </mxCell>
        <mxCell id="mJ4obrDYQ0f2yq2-sLK_-2" style="edgeStyle=orthogonalEdgeStyle;rounded=0;orthogonalLoop=1;jettySize=auto;html=1;" edge="1" parent="1" source="A-kss5NYeXnSZSWgqj85-1" target="mJ4obrDYQ0f2yq2-sLK_-5">
          <mxGeometry relative="1" as="geometry">
            <mxPoint x="414" y="190" as="targetPoint" />
          </mxGeometry>
        </mxCell>
        <mxCell id="A-kss5NYeXnSZSWgqj85-1" value="MENU" style="rounded=0;whiteSpace=wrap;html=1;" parent="1" vertex="1">
          <mxGeometry x="354" y="70" width="120" height="60" as="geometry" />
        </mxCell>
        <mxCell id="A-kss5NYeXnSZSWgqj85-7" style="edgeStyle=orthogonalEdgeStyle;rounded=0;orthogonalLoop=1;jettySize=auto;html=1;exitX=0.5;exitY=1;exitDx=0;exitDy=0;" parent="1" source="A-kss5NYeXnSZSWgqj85-2" target="A-kss5NYeXnSZSWgqj85-6" edge="1">
          <mxGeometry relative="1" as="geometry" />
        </mxCell>
        <mxCell id="mJ4obrDYQ0f2yq2-sLK_-3" style="edgeStyle=orthogonalEdgeStyle;rounded=0;orthogonalLoop=1;jettySize=auto;html=1;" edge="1" parent="1" source="A-kss5NYeXnSZSWgqj85-2" target="mJ4obrDYQ0f2yq2-sLK_-4">
          <mxGeometry relative="1" as="geometry">
            <mxPoint x="60" y="340" as="targetPoint" />
          </mxGeometry>
        </mxCell>
        <mxCell id="A-kss5NYeXnSZSWgqj85-2" value="Приймальна комісія&lt;br&gt;ЗНУ" style="rounded=1;whiteSpace=wrap;html=1;" parent="1" vertex="1">
          <mxGeometry x="160" y="185" width="150" height="55" as="geometry" />
        </mxCell>
        <mxCell id="A-kss5NYeXnSZSWgqj85-9" style="edgeStyle=orthogonalEdgeStyle;rounded=0;orthogonalLoop=1;jettySize=auto;html=1;exitX=0.5;exitY=1;exitDx=0;exitDy=0;" parent="1" source="A-kss5NYeXnSZSWgqj85-3" target="A-kss5NYeXnSZSWgqj85-8" edge="1">
          <mxGeometry relative="1" as="geometry" />
        </mxCell>
        <mxCell id="A-kss5NYeXnSZSWgqj85-3" value="Кафедри&amp;nbsp;&lt;br&gt;ІННІ ЗНУ" style="rounded=1;whiteSpace=wrap;html=1;" parent="1" vertex="1">
          <mxGeometry x="520" y="190" width="120" height="50" as="geometry" />
        </mxCell>
        <mxCell id="A-kss5NYeXnSZSWgqj85-6" value="Правила прийому" style="rounded=1;whiteSpace=wrap;html=1;" parent="1" vertex="1">
          <mxGeometry x="175" y="330" width="120" height="60" as="geometry" />
        </mxCell>
        <mxCell id="A-kss5NYeXnSZSWgqj85-14" style="edgeStyle=orthogonalEdgeStyle;rounded=0;orthogonalLoop=1;jettySize=auto;html=1;entryX=0;entryY=0.75;entryDx=0;entryDy=0;" parent="1" source="A-kss5NYeXnSZSWgqj85-8" target="A-kss5NYeXnSZSWgqj85-10" edge="1">
          <mxGeometry relative="1" as="geometry">
            <Array as="points">
              <mxPoint x="670" y="350" />
              <mxPoint x="670" y="315" />
            </Array>
          </mxGeometry>
        </mxCell>
        <mxCell id="A-kss5NYeXnSZSWgqj85-15" style="edgeStyle=orthogonalEdgeStyle;rounded=0;orthogonalLoop=1;jettySize=auto;html=1;exitX=1;exitY=0.5;exitDx=0;exitDy=0;entryX=0;entryY=0.5;entryDx=0;entryDy=0;" parent="1" source="A-kss5NYeXnSZSWgqj85-8" target="A-kss5NYeXnSZSWgqj85-11" edge="1">
          <mxGeometry relative="1" as="geometry">
            <Array as="points">
              <mxPoint x="720" y="350" />
            </Array>
          </mxGeometry>
        </mxCell>
        <mxCell id="A-kss5NYeXnSZSWgqj85-16" style="edgeStyle=orthogonalEdgeStyle;rounded=0;orthogonalLoop=1;jettySize=auto;html=1;entryX=0;entryY=0.25;entryDx=0;entryDy=0;" parent="1" source="A-kss5NYeXnSZSWgqj85-8" target="A-kss5NYeXnSZSWgqj85-12" edge="1">
          <mxGeometry relative="1" as="geometry">
            <Array as="points">
              <mxPoint x="670" y="350" />
              <mxPoint x="670" y="370" />
              <mxPoint x="720" y="370" />
            </Array>
          </mxGeometry>
        </mxCell>
        <mxCell id="A-kss5NYeXnSZSWgqj85-18" style="edgeStyle=orthogonalEdgeStyle;rounded=0;orthogonalLoop=1;jettySize=auto;html=1;entryX=0;entryY=0.75;entryDx=0;entryDy=0;" parent="1" source="A-kss5NYeXnSZSWgqj85-8" target="A-kss5NYeXnSZSWgqj85-13" edge="1">
          <mxGeometry relative="1" as="geometry">
            <mxPoint x="680" y="410" as="targetPoint" />
            <Array as="points">
              <mxPoint x="670" y="350" />
              <mxPoint x="670" y="405" />
            </Array>
          </mxGeometry>
        </mxCell>
        <mxCell id="A-kss5NYeXnSZSWgqj85-22" style="edgeStyle=orthogonalEdgeStyle;rounded=0;orthogonalLoop=1;jettySize=auto;html=1;entryX=0.5;entryY=0;entryDx=0;entryDy=0;" parent="1" source="A-kss5NYeXnSZSWgqj85-8" target="A-kss5NYeXnSZSWgqj85-19" edge="1">
          <mxGeometry relative="1" as="geometry" />
        </mxCell>
        <mxCell id="A-kss5NYeXnSZSWgqj85-8" value="Збір інформації" style="rounded=1;whiteSpace=wrap;html=1;" parent="1" vertex="1">
          <mxGeometry x="520" y="320" width="110" height="60" as="geometry" />
        </mxCell>
        <mxCell id="A-kss5NYeXnSZSWgqj85-10" value="Ім&#39;я" style="text;html=1;strokeColor=none;fillColor=none;align=center;verticalAlign=middle;whiteSpace=wrap;rounded=0;" parent="1" vertex="1">
          <mxGeometry x="760" y="300" width="40" height="20" as="geometry" />
        </mxCell>
        <mxCell id="A-kss5NYeXnSZSWgqj85-11" value="Email" style="text;html=1;strokeColor=none;fillColor=none;align=center;verticalAlign=middle;whiteSpace=wrap;rounded=0;" parent="1" vertex="1">
          <mxGeometry x="750" y="330" width="40" height="20" as="geometry" />
        </mxCell>
        <mxCell id="A-kss5NYeXnSZSWgqj85-12" value="Телефон" style="text;html=1;strokeColor=none;fillColor=none;align=center;verticalAlign=middle;whiteSpace=wrap;rounded=0;" parent="1" vertex="1">
          <mxGeometry x="740" y="360" width="70" height="20" as="geometry" />
        </mxCell>
        <mxCell id="A-kss5NYeXnSZSWgqj85-13" value="Адреса" style="text;html=1;strokeColor=none;fillColor=none;align=center;verticalAlign=middle;whiteSpace=wrap;rounded=0;" parent="1" vertex="1">
          <mxGeometry x="740" y="390" width="60" height="20" as="geometry" />
        </mxCell>
        <mxCell id="A-kss5NYeXnSZSWgqj85-21" style="edgeStyle=orthogonalEdgeStyle;rounded=0;orthogonalLoop=1;jettySize=auto;html=1;entryX=0.434;entryY=0.013;entryDx=0;entryDy=0;entryPerimeter=0;" parent="1" source="A-kss5NYeXnSZSWgqj85-19" target="A-kss5NYeXnSZSWgqj85-20" edge="1">
          <mxGeometry relative="1" as="geometry" />
        </mxCell>
        <mxCell id="A-kss5NYeXnSZSWgqj85-25" style="edgeStyle=orthogonalEdgeStyle;rounded=0;orthogonalLoop=1;jettySize=auto;html=1;entryX=0.567;entryY=0.025;entryDx=0;entryDy=0;entryPerimeter=0;" parent="1" source="A-kss5NYeXnSZSWgqj85-19" target="A-kss5NYeXnSZSWgqj85-23" edge="1">
          <mxGeometry relative="1" as="geometry" />
        </mxCell>
        <mxCell id="A-kss5NYeXnSZSWgqj85-19" value="Картка з &lt;br&gt;інформацією" style="rounded=1;whiteSpace=wrap;html=1;" parent="1" vertex="1">
          <mxGeometry x="515" y="440" width="120" height="60" as="geometry" />
        </mxCell>
        <mxCell id="A-kss5NYeXnSZSWgqj85-20" value="База даних" style="shape=cylinder3;whiteSpace=wrap;html=1;boundedLbl=1;backgroundOutline=1;size=15;" parent="1" vertex="1">
          <mxGeometry x="330" y="540" width="106" height="80" as="geometry" />
        </mxCell>
        <mxCell id="A-kss5NYeXnSZSWgqj85-23" value="Електрона пошта" style="shape=callout;whiteSpace=wrap;html=1;perimeter=calloutPerimeter;" parent="1" vertex="1">
          <mxGeometry x="660" y="545" width="120" height="80" as="geometry" />
        </mxCell>
        <mxCell id="mJ4obrDYQ0f2yq2-sLK_-4" value="Підписка на новини" style="rounded=1;whiteSpace=wrap;html=1;" vertex="1" parent="1">
          <mxGeometry x="30" y="330" width="120" height="60" as="geometry" />
        </mxCell>
        <mxCell id="mJ4obrDYQ0f2yq2-sLK_-5" value="Освітні програми&lt;br&gt;ІННІ ЗНУ" style="rounded=1;whiteSpace=wrap;html=1;" vertex="1" parent="1">
          <mxGeometry x="354" y="185" width="120" height="55" as="geometry" />
        </mxCell>
      </root>
    </mxGraphModel>
  </diagram>
</mxfile>
